<svg id="visual" viewBox="0 0 900 600" width="900" height="600" xmlns="http://www.w3.org/2000/svg" xmlns:xlink="http://www.w3.org/1999/xlink" version="1.1"><rect x="0" y="0" width="900" height="600" fill="#fff8c9"></rect><path d="M0 337L11.5 334C23 331 46 325 69 314.8C92 304.7 115 290.3 138.2 286C161.3 281.7 184.7 287.3 207.8 283.8C231 280.3 254 267.7 277 270.7C300 273.7 323 292.3 346 291.5C369 290.7 392 270.3 415.2 266.2C438.3 262 461.7 274 484.8 275.8C508 277.7 531 269.3 554 266.2C577 263 600 265 623 264C646 263 669 259 692.2 267.3C715.3 275.7 738.7 296.3 761.8 307.2C785 318 808 319 831 323.8C854 328.7 877 337.3 888.5 341.7L900 346L900 601L888.5 601C877 601 854 601 831 601C808 601 785 601 761.8 601C738.7 601 715.3 601 692.2 601C669 601 646 601 623 601C600 601 577 601 554 601C531 601 508 601 484.8 601C461.7 601 438.3 601 415.2 601C392 601 369 601 346 601C323 601 300 601 277 601C254 601 231 601 207.8 601C184.7 601 161.3 601 138.2 601C115 601 92 601 69 601C46 601 23 601 11.5 601L0 601Z" fill="#387284"></path><path d="M0 341L11.5 332C23 323 46 305 69 308.2C92 311.3 115 335.7 138.2 351C161.3 366.3 184.7 372.7 207.8 372.2C231 371.7 254 364.3 277 351.3C300 338.3 323 319.7 346 309.3C369 299 392 297 415.2 306.8C438.3 316.7 461.7 338.3 484.8 344.3C508 350.3 531 340.7 554 328.7C577 316.7 600 302.3 623 292.8C646 283.3 669 278.7 692.2 289.3C715.3 300 738.7 326 761.8 332.7C785 339.3 808 326.7 831 314C854 301.3 877 288.7 888.5 282.3L900 276L900 601L888.5 601C877 601 854 601 831 601C808 601 785 601 761.8 601C738.7 601 715.3 601 692.2 601C669 601 646 601 623 601C600 601 577 601 554 601C531 601 508 601 484.8 601C461.7 601 438.3 601 415.2 601C392 601 369 601 346 601C323 601 300 601 277 601C254 601 231 601 207.8 601C184.7 601 161.3 601 138.2 601C115 601 92 601 69 601C46 601 23 601 11.5 601L0 601Z" fill="#337c8b"></path><path d="M0 306L11.5 308.3C23 310.7 46 315.3 69 317.3C92 319.3 115 318.7 138.2 326.3C161.3 334 184.7 350 207.8 350.3C231 350.7 254 335.3 277 341C300 346.7 323 373.3 346 371.2C369 369 392 338 415.2 335.8C438.3 333.7 461.7 360.3 484.8 370C508 379.7 531 372.3 554 357.8C577 343.3 600 321.7 623 313.7C646 305.7 669 311.3 692.2 325.8C715.3 340.3 738.7 363.7 761.8 371.5C785 379.3 808 371.7 831 372.3C854 373 877 382 888.5 386.5L900 391L900 601L888.5 601C877 601 854 601 831 601C808 601 785 601 761.8 601C738.7 601 715.3 601 692.2 601C669 601 646 601 623 601C600 601 577 601 554 601C531 601 508 601 484.8 601C461.7 601 438.3 601 415.2 601C392 601 369 601 346 601C323 601 300 601 277 601C254 601 231 601 207.8 601C184.7 601 161.3 601 138.2 601C115 601 92 601 69 601C46 601 23 601 11.5 601L0 601Z" fill="#2e8691"></path><path d="M0 356L11.5 355C23 354 46 352 69 360.2C92 368.3 115 386.7 138.2 386.2C161.3 385.7 184.7 366.3 207.8 361.3C231 356.3 254 365.7 277 370.3C300 375 323 375 346 379.2C369 383.3 392 391.7 415.2 397.2C438.3 402.7 461.7 405.3 484.8 395C508 384.7 531 361.3 554 357.3C577 353.3 600 368.7 623 376.7C646 384.7 669 385.3 692.2 389.8C715.3 394.3 738.7 402.7 761.8 393C785 383.3 808 355.7 831 352.7C854 349.7 877 371.3 888.5 382.2L900 393L900 601L888.5 601C877 601 854 601 831 601C808 601 785 601 761.8 601C738.7 601 715.3 601 692.2 601C669 601 646 601 623 601C600 601 577 601 554 601C531 601 508 601 484.8 601C461.7 601 438.3 601 415.2 601C392 601 369 601 346 601C323 601 300 601 277 601C254 601 231 601 207.8 601C184.7 601 161.3 601 138.2 601C115 601 92 601 69 601C46 601 23 601 11.5 601L0 601Z" fill="#2d9094"></path><path d="M0 393L11.5 399.8C23 406.7 46 420.3 69 425C92 429.7 115 425.3 138.2 415C161.3 404.7 184.7 388.3 207.8 378.3C231 368.3 254 364.7 277 364.2C300 363.7 323 366.3 346 370.8C369 375.3 392 381.7 415.2 390.3C438.3 399 461.7 410 484.8 408C508 406 531 391 554 388.7C577 386.3 600 396.7 623 405.3C646 414 669 421 692.2 417C715.3 413 738.7 398 761.8 395.2C785 392.3 808 401.7 831 400.3C854 399 877 387 888.5 381L900 375L900 601L888.5 601C877 601 854 601 831 601C808 601 785 601 761.8 601C738.7 601 715.3 601 692.2 601C669 601 646 601 623 601C600 601 577 601 554 601C531 601 508 601 484.8 601C461.7 601 438.3 601 415.2 601C392 601 369 601 346 601C323 601 300 601 277 601C254 601 231 601 207.8 601C184.7 601 161.3 601 138.2 601C115 601 92 601 69 601C46 601 23 601 11.5 601L0 601Z" fill="#2f9a96"></path><path d="M0 408L11.5 411.8C23 415.7 46 423.3 69 430.5C92 437.7 115 444.3 138.2 445.2C161.3 446 184.7 441 207.8 437.8C231 434.7 254 433.3 277 429C300 424.7 323 417.3 346 416.2C369 415 392 420 415.2 415.3C438.3 410.7 461.7 396.3 484.8 396.7C508 397 531 412 554 418.7C577 425.3 600 423.7 623 422.3C646 421 669 420 692.2 417C715.3 414 738.7 409 761.8 412.3C785 415.7 808 427.3 831 435.7C854 444 877 449 888.5 451.5L900 454L900 601L888.5 601C877 601 854 601 831 601C808 601 785 601 761.8 601C738.7 601 715.3 601 692.2 601C669 601 646 601 623 601C600 601 577 601 554 601C531 601 508 601 484.8 601C461.7 601 438.3 601 415.2 601C392 601 369 601 346 601C323 601 300 601 277 601C254 601 231 601 207.8 601C184.7 601 161.3 601 138.2 601C115 601 92 601 69 601C46 601 23 601 11.5 601L0 601Z" fill="#37a397"></path><path d="M0 465L11.5 457.8C23 450.7 46 436.3 69 428.7C92 421 115 420 138.2 425.5C161.3 431 184.7 443 207.8 449.3C231 455.7 254 456.3 277 452.8C300 449.3 323 441.7 346 440.7C369 439.7 392 445.3 415.2 450.7C438.3 456 461.7 461 484.8 462.3C508 463.7 531 461.3 554 455.3C577 449.3 600 439.7 623 439C646 438.3 669 446.7 692.2 447C715.3 447.3 738.7 439.7 761.8 434C785 428.3 808 424.7 831 426.8C854 429 877 437 888.5 441L900 445L900 601L888.5 601C877 601 854 601 831 601C808 601 785 601 761.8 601C738.7 601 715.3 601 692.2 601C669 601 646 601 623 601C600 601 577 601 554 601C531 601 508 601 484.8 601C461.7 601 438.3 601 415.2 601C392 601 369 601 346 601C323 601 300 601 277 601C254 601 231 601 207.8 601C184.7 601 161.3 601 138.2 601C115 601 92 601 69 601C46 601 23 601 11.5 601L0 601Z" fill="#44ad95"></path><path d="M0 441L11.5 445.3C23 449.7 46 458.3 69 458C92 457.7 115 448.3 138.2 445.5C161.3 442.7 184.7 446.3 207.8 447.5C231 448.7 254 447.3 277 453C300 458.7 323 471.3 346 471.5C369 471.7 392 459.3 415.2 455.2C438.3 451 461.7 455 484.8 458.3C508 461.7 531 464.3 554 464C577 463.7 600 460.3 623 456.2C646 452 669 447 692.2 453.7C715.3 460.3 738.7 478.7 761.8 483.5C785 488.3 808 479.7 831 470.5C854 461.3 877 451.7 888.5 446.8L900 442L900 601L888.5 601C877 601 854 601 831 601C808 601 785 601 761.8 601C738.7 601 715.3 601 692.2 601C669 601 646 601 623 601C600 601 577 601 554 601C531 601 508 601 484.8 601C461.7 601 438.3 601 415.2 601C392 601 369 601 346 601C323 601 300 601 277 601C254 601 231 601 207.8 601C184.7 601 161.3 601 138.2 601C115 601 92 601 69 601C46 601 23 601 11.5 601L0 601Z" fill="#53b692"></path><path d="M0 516L11.5 514C23 512 46 508 69 501.2C92 494.3 115 484.7 138.2 485.3C161.3 486 184.7 497 207.8 501.8C231 506.7 254 505.3 277 503.5C300 501.7 323 499.3 346 495.5C369 491.7 392 486.3 415.2 490C438.3 493.7 461.7 506.3 484.8 508.3C508 510.3 531 501.7 554 501.5C577 501.3 600 509.7 623 508.5C646 507.3 669 496.7 692.2 492.5C715.3 488.3 738.7 490.7 761.8 491.7C785 492.7 808 492.3 831 495.7C854 499 877 506 888.5 509.5L900 513L900 601L888.5 601C877 601 854 601 831 601C808 601 785 601 761.8 601C738.7 601 715.3 601 692.2 601C669 601 646 601 623 601C600 601 577 601 554 601C531 601 508 601 484.8 601C461.7 601 438.3 601 415.2 601C392 601 369 601 346 601C323 601 300 601 277 601C254 601 231 601 207.8 601C184.7 601 161.3 601 138.2 601C115 601 92 601 69 601C46 601 23 601 11.5 601L0 601Z" fill="#65be8e"></path><path d="M0 531L11.5 531.5C23 532 46 533 69 529.3C92 525.7 115 517.3 138.2 511.3C161.3 505.3 184.7 501.7 207.8 503.5C231 505.3 254 512.7 277 515.2C300 517.7 323 515.3 346 513.2C369 511 392 509 415.2 508.2C438.3 507.3 461.7 507.7 484.8 511C508 514.3 531 520.7 554 519.7C577 518.7 600 510.3 623 511.8C646 513.3 669 524.7 692.2 528.2C715.3 531.7 738.7 527.3 761.8 527C785 526.7 808 530.3 831 528.7C854 527 877 520 888.5 516.5L900 513L900 601L888.5 601C877 601 854 601 831 601C808 601 785 601 761.8 601C738.7 601 715.3 601 692.2 601C669 601 646 601 623 601C600 601 577 601 554 601C531 601 508 601 484.8 601C461.7 601 438.3 601 415.2 601C392 601 369 601 346 601C323 601 300 601 277 601C254 601 231 601 207.8 601C184.7 601 161.3 601 138.2 601C115 601 92 601 69 601C46 601 23 601 11.5 601L0 601Z" fill="#78c689"></path><path d="M0 534L11.5 534.5C23 535 46 536 69 540.3C92 544.7 115 552.3 138.2 554.3C161.3 556.3 184.7 552.7 207.8 546.8C231 541 254 533 277 528.8C300 524.7 323 524.3 346 527.7C369 531 392 538 415.2 541.3C438.3 544.7 461.7 544.3 484.8 541.2C508 538 531 532 554 532.7C577 533.3 600 540.7 623 540.2C646 539.7 669 531.3 692.2 531.7C715.3 532 738.7 541 761.8 541.5C785 542 808 534 831 535.2C854 536.3 877 546.7 888.5 551.8L900 557L900 601L888.5 601C877 601 854 601 831 601C808 601 785 601 761.8 601C738.7 601 715.3 601 692.2 601C669 601 646 601 623 601C600 601 577 601 554 601C531 601 508 601 484.8 601C461.7 601 438.3 601 415.2 601C392 601 369 601 346 601C323 601 300 601 277 601C254 601 231 601 207.8 601C184.7 601 161.3 601 138.2 601C115 601 92 601 69 601C46 601 23 601 11.5 601L0 601Z" fill="#8dce84"></path><path d="M0 554L11.5 558C23 562 46 570 69 571.8C92 573.7 115 569.3 138.2 566.8C161.3 564.3 184.7 563.7 207.8 562.7C231 561.7 254 560.3 277 559.7C300 559 323 559 346 561.8C369 564.7 392 570.3 415.2 569.7C438.3 569 461.7 562 484.8 558.3C508 554.7 531 554.3 554 555.2C577 556 600 558 623 560.2C646 562.3 669 564.7 692.2 564.7C715.3 564.7 738.7 562.3 761.8 560.7C785 559 808 558 831 559.2C854 560.3 877 563.7 888.5 565.3L900 567L900 601L888.5 601C877 601 854 601 831 601C808 601 785 601 761.8 601C738.7 601 715.3 601 692.2 601C669 601 646 601 623 601C600 601 577 601 554 601C531 601 508 601 484.8 601C461.7 601 438.3 601 415.2 601C392 601 369 601 346 601C323 601 300 601 277 601C254 601 231 601 207.8 601C184.7 601 161.3 601 138.2 601C115 601 92 601 69 601C46 601 23 601 11.5 601L0 601Z" fill="#a3d57f"></path></svg>